<svg xmlns="http://www.w3.org/2000/svg" width="640" height="400" viewBox="0 0 640 400" fill="none" aria-hidden="true">
  <defs>
    <linearGradient id="bg" x1="0" y1="0" x2="640" y2="400" gradientUnits="userSpaceOnUse">
      <stop stop-color="#1e3a5f"/>
      <stop offset="0.45" stop-color="#2563eb"/>
      <stop offset="1" stop-color="#4f46e5"/>
    </linearGradient>
    <linearGradient id="shine" x1="120" y1="-20" x2="480" y2="420" gradientUnits="userSpaceOnUse">
      <stop stop-color="#ffffff" stop-opacity="0.22"/>
      <stop offset="0.35" stop-color="#ffffff" stop-opacity="0.06"/>
      <stop offset="1" stop-color="#ffffff" stop-opacity="0"/>
    </linearGradient>
  </defs>
  <rect width="640" height="400" rx="28" fill="url(#bg)"/>
  <rect width="640" height="400" rx="28" fill="url(#shine)"/>
  <rect x="48" y="200" width="72" height="52" rx="8" fill="#fbbf24" fill-opacity="0.9"/>
  <rect x="48" y="200" width="72" height="52" rx="8" stroke="#fcd34d" stroke-opacity="0.5" stroke-width="2"/>
  <g opacity="0.35" stroke="#e2e8f0" stroke-width="3" stroke-linecap="round">
    <path d="M520 88c16 0 28 12 28 28s-12 28-28 28"/>
    <path d="M548 88c16 0 28 12 28 28s-12 28-28 28"/>
    <path d="M576 88c16 0 28 12 28 28s-12 28-28 28"/>
  </g>
  <rect x="48" y="288" width="320" height="10" rx="4" fill="#e2e8f0" fill-opacity="0.25"/>
  <rect x="48" y="312" width="200" height="10" rx="4" fill="#e2e8f0" fill-opacity="0.15"/>
  <rect x="400" y="288" width="192" height="34" rx="6" fill="#0f172a" fill-opacity="0.35"/>
  <text x="320" y="150" text-anchor="middle" fill="#f8fafc" fill-opacity="0.9" font-family="ui-sans-serif, system-ui, sans-serif" font-size="22" font-weight="600" letter-spacing="0.2em">CARD</text>
</svg>
