<svg xmlns="http://www.w3.org/2000/svg" width="640" height="400" viewBox="0 0 640 400" fill="none" aria-hidden="true">
  <defs>
    <linearGradient id="ax-bg" x1="0" y1="0" x2="640" y2="400" gradientUnits="userSpaceOnUse">
      <stop stop-color="#2d0a45"/>
      <stop offset="0.35" stop-color="#6a1b7a"/>
      <stop offset="0.65" stop-color="#9c27b0"/>
      <stop offset="1" stop-color="#c2185b"/>
    </linearGradient>
    <linearGradient id="ax-sheen" x1="80" y1="0" x2="520" y2="380" gradientUnits="userSpaceOnUse">
      <stop stop-color="#ffffff" stop-opacity="0.28"/>
      <stop offset="0.4" stop-color="#ffffff" stop-opacity="0.06"/>
      <stop offset="1" stop-color="#ffffff" stop-opacity="0"/>
    </linearGradient>
    <linearGradient id="ax-band" x1="0" y1="200" x2="640" y2="260" gradientUnits="userSpaceOnUse">
      <stop stop-color="#ffffff" stop-opacity="0.14"/>
      <stop offset="0.5" stop-color="#ffffff" stop-opacity="0.22"/>
      <stop offset="1" stop-color="#ffffff" stop-opacity="0.08"/>
    </linearGradient>
    <linearGradient id="ax-chip" x1="48" y1="200" x2="120" y2="252" gradientUnits="userSpaceOnUse">
      <stop stop-color="#e8e0d5"/>
      <stop offset="0.5" stop-color="#b8a88c"/>
      <stop offset="1" stop-color="#8a7a62"/>
    </linearGradient>
  </defs>
  <rect width="640" height="400" rx="28" fill="url(#ax-bg)"/>
  <path d="M-20 120 L680 40 L720 200 L-40 320 Z" fill="url(#ax-band)" opacity="0.9"/>
  <rect width="640" height="400" rx="28" fill="url(#ax-sheen)"/>
  <rect x="48" y="200" width="72" height="52" rx="8" fill="url(#ax-chip)"/>
  <rect x="52" y="204" width="64" height="44" rx="6" stroke="#5c4a3a" stroke-opacity="0.35" stroke-width="1" fill="none"/>
  <rect x="60" y="212" width="20" height="16" rx="2" fill="#6b5b4a" fill-opacity="0.25"/>
  <g opacity="0.45" stroke="#fce4ec" stroke-width="3" stroke-linecap="round">
    <path d="M520 88c16 0 28 12 28 28s-12 28-28 28"/>
    <path d="M548 88c16 0 28 12 28 28s-12 28-28 28"/>
    <path d="M576 88c16 0 28 12 28 28s-12 28-28 28"/>
  </g>
  <rect x="48" y="288" width="280" height="9" rx="4" fill="#fce4ec" fill-opacity="0.2"/>
  <rect x="48" y="304" width="180" height="9" rx="4" fill="#fce4ec" fill-opacity="0.12"/>
  <rect x="380" y="278" width="212" height="38" rx="8" fill="#1a0520" fill-opacity="0.45"/>
  <rect x="400" y="292" width="172" height="10" rx="3" fill="#fce4ec" fill-opacity="0.15"/>
</svg>
