<svg xmlns="http://www.w3.org/2000/svg" width="640" height="400" viewBox="0 0 640 400" fill="none" aria-hidden="true">
  <defs>
    <linearGradient id="sbi-bg" x1="0" y1="0" x2="640" y2="400" gradientUnits="userSpaceOnUse">
      <stop stop-color="#062a52"/>
      <stop offset="0.45" stop-color="#0d4580"/>
      <stop offset="1" stop-color="#1a5fa8"/>
    </linearGradient>
    <linearGradient id="sbi-accent" x1="0" y1="180" x2="640" y2="240" gradientUnits="userSpaceOnUse">
      <stop stop-color="#e65100" stop-opacity="0.35"/>
      <stop offset="0.5" stop-color="#ff9800" stop-opacity="0.45"/>
      <stop offset="1" stop-color="#e65100" stop-opacity="0.25"/>
    </linearGradient>
    <linearGradient id="sbi-shine" x1="100" y1="0" x2="500" y2="400" gradientUnits="userSpaceOnUse">
      <stop stop-color="#ffffff" stop-opacity="0.2"/>
      <stop offset="0.45" stop-color="#ffffff" stop-opacity="0.05"/>
      <stop offset="1" stop-color="#ffffff" stop-opacity="0"/>
    </linearGradient>
    <linearGradient id="sbi-chip" x1="48" y1="200" x2="120" y2="252" gradientUnits="userSpaceOnUse">
      <stop stop-color="#e8e0d5"/>
      <stop offset="1" stop-color="#9a8b72"/>
    </linearGradient>
  </defs>
  <rect width="640" height="400" rx="28" fill="url(#sbi-bg)"/>
  <rect y="168" width="640" height="64" fill="url(#sbi-accent)"/>
  <rect width="640" height="400" rx="28" fill="url(#sbi-shine)"/>
  <rect x="48" y="200" width="72" height="52" rx="8" fill="url(#sbi-chip)"/>
  <rect x="52" y="204" width="64" height="44" rx="6" stroke="#5c4a3a" stroke-opacity="0.3" stroke-width="1" fill="none"/>
  <g opacity="0.4" stroke="#e3f2fd" stroke-width="3" stroke-linecap="round">
    <path d="M520 88c16 0 28 12 28 28s-12 28-28 28"/>
    <path d="M548 88c16 0 28 12 28 28s-12 28-28 28"/>
    <path d="M576 88c16 0 28 12 28 28s-12 28-28 28"/>
  </g>
  <rect x="48" y="288" width="300" height="9" rx="4" fill="#e3f2fd" fill-opacity="0.2"/>
  <rect x="48" y="304" width="190" height="9" rx="4" fill="#e3f2fd" fill-opacity="0.12"/>
  <rect x="380" y="278" width="212" height="38" rx="8" fill="#041a33" fill-opacity="0.5"/>
</svg>
