<svg xmlns="http://www.w3.org/2000/svg" width="64" height="64" viewBox="0 0 64 64" fill="none">
  <rect width="64" height="64" rx="14" fill="url(#bg)" />
  <rect x="12" y="19" width="40" height="27" rx="7" fill="white" fill-opacity="0.96" />
  <path d="M17 27H47" stroke="#C7D2FE" stroke-width="3.5" stroke-linecap="round" />
  <path d="M28.5 38.5C26.6 40.1 24.5 41 22 41C17.1 41 13.5 37.4 13.5 32.5C13.5 27.6 17.1 24 22 24C24.6 24 26.7 24.9 28.5 26.6" stroke="#4F46E5" stroke-width="3.5" stroke-linecap="round" />
  <path d="M43 27.2C41.4 25.2 39.3 24.2 36.8 24.2C31.9 24.2 28.3 27.7 28.3 32.5C28.3 37.3 31.9 40.8 36.8 40.8C39 40.8 41.1 40 43 38.4V34.2H36.9" stroke="#7C3AED" stroke-width="3.5" stroke-linecap="round" stroke-linejoin="round" />
  <circle cx="45.5" cy="15.5" r="3" fill="white" />
  <circle cx="53" cy="12" r="2" fill="white" fill-opacity="0.9" />
  <path d="M48.2 14.2L51 12.9" stroke="white" stroke-opacity="0.78" stroke-width="1.7" stroke-linecap="round" />
  <defs>
    <linearGradient id="bg" x1="7" y1="6" x2="59" y2="59" gradientUnits="userSpaceOnUse">
      <stop stop-color="#6366F1" />
      <stop offset="1" stop-color="#A855F7" />
    </linearGradient>
  </defs>
</svg>
