<svg xmlns="http://www.w3.org/2000/svg" width="64" height="64" viewBox="0 0 64 64" fill="none">
  <rect width="64" height="64" rx="14" fill="#F8FAFC" />
  <rect x="8" y="23" width="30" height="18" rx="4" fill="url(#card)" />
  <rect x="13" y="28" width="8" height="5" rx="1.2" fill="white" fill-opacity="0.95" />
  <path d="M13 37H32" stroke="white" stroke-width="2.6" stroke-linecap="round" />
  <path d="M35 19H43M43 19L47 15M35 25H41M41 25L46 30H54" stroke="url(#circuit)" stroke-width="2.8" stroke-linecap="round" stroke-linejoin="round" />
  <path d="M48 25L57 35L49 35.5C45 35.8 42 37.5 40 40C37 43.5 33 43 31 41" stroke="url(#circuit)" stroke-width="4" stroke-linecap="round" stroke-linejoin="round" />
  <circle cx="35" cy="19" r="2.3" fill="url(#circuit)" />
  <circle cx="47" cy="15" r="2.3" fill="url(#circuit)" />
  <circle cx="54" cy="30" r="2.3" fill="url(#circuit)" />
  <path d="M52 9L54 13L58 15L54 17L52 21L50 17L46 15L50 13L52 9Z" fill="#7C3AED" />
  <defs>
    <linearGradient id="card" x1="8" y1="23" x2="37" y2="41" gradientUnits="userSpaceOnUse">
      <stop stop-color="#6366F1" />
      <stop offset="1" stop-color="#A855F7" />
    </linearGradient>
    <linearGradient id="circuit" x1="31" y1="9" x2="58" y2="43" gradientUnits="userSpaceOnUse">
      <stop stop-color="#6366F1" />
      <stop offset="1" stop-color="#A855F7" />
    </linearGradient>
  </defs>
</svg>
